<svg width="32" height="32" viewBox="0 0 32 32" fill="none" xmlns="http://www.w3.org/2000/svg">
<path d="M16.541 13.0479L16.7691 14.6106L17.154 16.5245L16.7429 17.4052L16.5087 18.1995L16.409 19.2372L16.5804 20.359L16.9437 21.0161L17.3215 21.4962L17.7001 21.7749L18.1775 21.2172L18.5059 20.5932L18.6633 19.7952L18.6717 18.9308L18.4409 17.9721L18.0333 17.0996L17.5431 16.4839L17.3478 15.6571L17.1564 14.9727L16.867 13.9756L16.541 13.0479Z" fill="#FFCC00"/>
<path d="M15.0254 9.89941L15.0394 11.472L15.1615 13.4062L14.6329 14.2491L14.2917 15.0203L14.0513 16.0443L14.0689 17.1737L14.3408 17.8563L14.6511 18.3641L14.9897 18.6716L15.5404 18.1554L15.952 17.5611L16.2172 16.7801L16.3433 15.9211L16.2443 14.9491L15.9577 14.0487L15.5541 13.397L15.4725 12.5591L15.3753 11.8631L15.2232 10.8483L15.0254 9.89941Z" fill="#FFCC00"/>
<path d="M13.9385 6.7168L13.7028 8.27893L13.5169 10.2102L12.8583 10.9973L12.3973 11.7308L11.996 12.7248L11.8342 13.8474L11.9957 14.5503L12.2231 15.0833L12.5103 15.4203L13.1389 14.9594L13.6418 14.4081L14.029 13.6577L14.2905 12.8169L14.3466 11.8429L14.2051 10.9224L13.9079 10.2378L13.9599 9.3985L13.974 8.69859L13.9842 7.67707L13.9385 6.7168Z" fill="#FFCC00"/>
<path d="M12.7354 3.59473L12.4288 5.14959L12.1552 7.07467L11.4612 7.84368L10.9671 8.56443L10.5209 9.547L10.3082 10.6646L10.4376 11.3715L10.6406 11.9102L10.9123 12.2547L11.5615 11.8109L12.0892 11.2734L12.5102 10.5338L12.8098 9.70054L12.9101 8.72859L12.8106 7.8049L12.5447 7.11274L12.6349 6.27537L12.6808 5.57627L12.7374 4.55564L12.7354 3.59473Z" fill="#FFCC00"/>
<path d="M25.6393 28.3503L26.2534 28.5811L24.9858 27.8452L23.5203 26.8866L22.2307 26.0431L20.892 25.0432L19.8329 24.2107L18.5941 23.1208L17.3197 21.8989L16.2078 20.7677L15.1054 19.5185L14.1654 18.36L13.2436 17.1668L12.8303 16.5547L12.2911 15.7826L11.1558 13.7973L10.5819 12.6918L10.0714 11.5657L9.58398 10.3459L9.23589 9.31046L9.42224 9.10613L9.89187 8.2638L10.0358 7.44143L9.91352 6.47602L9.7308 5.87496L9.27711 5.18986L8.67448 4.43841L8.60785 3.16765L8.61331 1.95957L8.75037 0.651171L8.47782 1.91755L8.30038 3.15295L8.27189 4.45469L7.74934 4.99833L7.54383 5.43867L7.472 6.32372L7.72794 7.73384L8.26535 8.90865L8.75165 9.38207L8.89217 10.3128L8.61344 9.94409L8.22134 9.64103L7.54959 9.17058L6.74624 8.80046L5.68537 8.37064L5.03939 7.20249L4.41257 5.79832L4.76453 6.97611L5.26933 8.36259L5.45113 9.165L5.88566 10.0861L6.4566 10.8479L7.22642 11.631L7.95679 12.1398L8.82355 12.4893L9.66819 12.7311L9.96723 13.6102L9.03797 13.08L8.17121 12.7306L7.12767 12.4674L6.48194 12.247L5.56886 11.1371L4.77781 10.045L5.04218 10.5907L5.67949 11.6755L6.42538 12.7537L6.68884 13.5008L7.3453 14.3496L7.93539 14.8753L9.07222 15.5102L10.1062 15.8913L11.29 16.1375L11.9004 17.1736L10.9029 16.7231L10.09 16.471L8.97826 16.2875L8.25953 16.2058L7.74153 15.7427L7.11107 15.1439L6.07117 14.0754L6.85743 15.2266L7.34761 15.8423L8.00978 16.4308L8.25202 16.8688L8.83162 17.714L9.66098 18.3341L10.9515 18.9763L12.1258 19.3405L13.1923 19.5099L13.7938 19.515L14.6175 20.3955L13.7056 20.032L13.0685 19.8949L12.3363 19.7888L11.5359 19.7624L10.6856 19.781L10.0273 19.3349L9.53143 18.9795L8.86447 18.45L7.75159 17.5201L8.557 18.4353L9.28646 19.1454L9.80926 19.5495L10.5531 20.0826L10.7914 20.3784L11.1692 20.8584L11.6333 21.2242L12.3099 21.6356L13.2487 22.0478L14.6718 22.3883L15.6394 22.4464L16.6752 22.4249L17.9409 23.5634L20.0321 25.1798L21.1276 25.943L22.6114 26.8669L23.482 27.3587L24.1364 27.6624L24.7005 27.9382L25.1608 28.1616L25.6393 28.3503Z" fill="#FFCC00"/>
<path d="M26.917 14.8496L26.0969 15.638L25.1404 16.6402L24.4334 16.8966L23.8577 17.1754L23.1992 17.6114L22.614 18.18L22.3905 18.6046L22.2781 18.9539L22.2852 19.2122L22.8313 19.1255L23.3491 18.9568L23.8921 18.6495L24.4068 18.2603L24.8687 17.745L25.1994 17.2073L25.3409 16.7573L25.7409 16.3142L26.0586 15.9371L26.5166 15.384L26.917 14.8496Z" fill="#FFCC00"/>
<path d="M28.0898 12.8926L27.1669 13.6108L26.0791 14.5308L25.3412 14.7291L24.7306 14.9602L24.0163 15.341L23.3569 15.8595L23.0768 16.2638L22.9175 16.6022L22.8893 16.8596L23.4443 16.8172L23.9822 16.691L24.5641 16.429L25.1289 16.0832L25.6585 15.6078L26.0606 15.0995L26.2626 14.6633L26.7208 14.2548L27.0881 13.9053L27.6188 13.3919L28.0898 12.8926Z" fill="#FFCC00"/>
<path d="M29.4775 11.0713L28.4474 11.6979L27.2217 12.5092L26.4578 12.637L25.8151 12.8092L25.0457 13.1204L24.3088 13.5733L23.9666 13.9484L23.7548 14.2694L23.6859 14.5223L24.2435 14.5321L24.7974 14.4571L25.4166 14.2515L26.0321 13.9612L26.6332 13.5388L27.113 13.072L27.3828 12.6579L27.9024 12.2953L28.3224 11.9827L28.9308 11.5228L29.4775 11.0713Z" fill="#FFCC00"/>
<path d="M30.7773 9.23535L29.7193 9.83395L28.4575 10.612L27.6882 10.7192L27.0381 10.8741L26.255 11.1645L25.498 11.5974L25.139 11.9631L24.9126 12.2782L24.8324 12.5291L25.3891 12.5538L25.9461 12.4937L26.5743 12.3048L27.2026 12.0312L27.8225 11.6252L28.3233 11.1715L28.6117 10.7649L29.1475 10.4164L29.5815 10.1153L30.2104 9.67197L30.7773 9.23535Z" fill="#FFCC00"/>
<path d="M22.0006 24.9594L22.1428 25.2779L22.0027 24.5027L21.9044 23.5576L21.8179 22.7258L21.8015 21.8061L21.8131 21.0596L21.8952 20.1338L22.0392 19.1358L22.2033 18.2354L22.4415 17.2848L22.6998 16.4319L22.9868 15.5697L23.161 15.1481L23.3727 14.6101L24.031 13.3141L24.424 12.6128L24.858 11.9242L25.3577 11.2011L25.8118 10.6102L26.017 10.5824L26.7279 10.3638L27.2792 10.0408L27.7943 9.56028L28.0666 9.22399L28.2657 8.75522L28.4364 8.20448L29.1572 7.6048L29.8737 7.05866L30.7091 6.51284L29.837 6.99242L29.0264 7.49107L28.2442 8.07168L27.6858 8.13634L27.3324 8.26453L26.7767 8.64102L26.0595 9.36984L25.6089 10.0899L25.5498 10.474L25.0634 10.9452L25.1549 10.6808L25.1561 10.4068L25.1294 9.9595L24.9837 9.51186L24.7565 8.94746L25.1538 8.19259L25.6993 7.33733L25.1629 7.99419L24.5725 8.79894L24.1808 9.22625L23.8335 9.79542L23.6423 10.3398L23.5287 10.9631L23.5594 11.4483L23.746 11.9086L23.9863 12.3124L23.6024 12.8154L23.4942 12.2513L23.3075 11.7909L22.9896 11.3082L22.827 10.9833L23.0687 10.1619L23.3553 9.39099L23.1527 9.73062L22.8007 10.4447L22.5018 11.1935L22.1798 11.6241L21.976 12.2378L21.933 12.6818L22.0735 13.3656L22.3173 13.8986L22.7088 14.4225L22.3734 15.1051L22.1871 14.5534L21.9673 14.1559L21.5715 13.6856L21.2937 13.3982L21.3324 13.0077L21.4003 12.5166L21.56 11.6697L21.2364 12.4657L21.0948 12.9158L21.0475 13.4133L20.8985 13.6964L20.6619 14.2816L20.6717 14.8517L20.8776 15.5924L21.1951 16.1665L21.5787 16.6148L21.8486 16.8265L21.7019 17.5128L21.503 17.0304L21.295 16.7463L21.0256 16.4432L20.6781 16.1525L20.2814 15.8649L20.2464 15.4333L20.2315 15.0994L20.2418 14.6269L20.2865 13.8176L20.111 14.5132L20.0223 15.0894L20.0206 15.4547L20.043 15.9556L19.9763 16.1727L19.864 16.522L19.8584 16.8496L19.9221 17.2718L20.1045 17.7857L20.5488 18.4357L20.9534 18.799L21.436 19.1499L21.3373 20.1072L21.3307 21.5686L21.3766 22.2963L21.5037 23.2321L21.608 23.7584L21.7254 24.124L21.8183 24.4456L21.8951 24.7072L22.0006 24.9594Z" fill="#FFCC00"/>
</svg>
